<?xml version="1.0" encoding="UTF-8"?>
<svg width="100" height="100" viewBox="0 0 100 100" fill="none" xmlns="http://www.w3.org/2000/svg">
  <defs>
    <linearGradient id="g" x1="0%" y1="0%" x2="100%" y2="100%">
      <stop offset="0%" style="stop-color:#00f0ff"/>
      <stop offset="100%" style="stop-color:#8b5cf6"/>
    </linearGradient>
    <linearGradient id="f" x1="0%" y1="0%" x2="100%" y2="100%">
      <stop offset="0%" style="stop-color:#00f0ff;stop-opacity:0.25"/>
      <stop offset="100%" style="stop-color:#8b5cf6;stop-opacity:0.1"/>
    </linearGradient>
  </defs>
  <rect width="100" height="100" fill="#0a0a0f"/>
  <path d="M50 8L86 29V71L50 92L14 71V29L50 8Z" stroke="url(#g)" stroke-width="2" fill="none"/>
  <path d="M50 16L78 33V67L50 84L22 67V33L50 16Z" stroke="url(#g)" stroke-width="1.5" fill="url(#f)"/>
  <path d="M50 26L66 37V63L50 74L34 63V37L50 26Z" stroke="url(#g)" stroke-width="1" fill="rgba(0,240,255,0.15)"/>
  <circle cx="50" cy="50" r="11" stroke="url(#g)" stroke-width="1.5" fill="none"/>
  <circle cx="50" cy="50" r="4" fill="url(#g)"/>
  <g stroke="url(#g)" stroke-width="0.8" opacity="0.6">
    <line x1="50" y1="39" x2="50" y2="16"/><line x1="60" y1="44" x2="78" y2="33"/>
    <line x1="60" y1="56" x2="78" y2="67"/><line x1="50" y1="61" x2="50" y2="84"/>
    <line x1="40" y1="56" x2="22" y2="67"/><line x1="40" y1="44" x2="22" y2="33"/>
  </g>
  <g fill="url(#g)">
    <circle cx="50" cy="16" r="3"/><circle cx="78" cy="33" r="3"/><circle cx="78" cy="67" r="3"/>
    <circle cx="50" cy="84" r="3"/><circle cx="22" cy="67" r="3"/><circle cx="22" cy="33" r="3"/>
  </g>
</svg>
