<?xml version="1.0" encoding="UTF-8"?>
<svg width="500" height="500" viewBox="0 0 500 500" fill="none" xmlns="http://www.w3.org/2000/svg">
  <defs>
    <linearGradient id="mainGrad" x1="0%" y1="0%" x2="100%" y2="100%">
      <stop offset="0%" style="stop-color:#00f0ff"/>
      <stop offset="100%" style="stop-color:#8b5cf6"/>
    </linearGradient>
    <linearGradient id="fillGrad" x1="0%" y1="0%" x2="100%" y2="100%">
      <stop offset="0%" style="stop-color:#00f0ff;stop-opacity:0.2"/>
      <stop offset="100%" style="stop-color:#8b5cf6;stop-opacity:0.1"/>
    </linearGradient>
    <radialGradient id="bgGlow" cx="50%" cy="50%" r="50%">
      <stop offset="0%" style="stop-color:#0d1117"/>
      <stop offset="70%" style="stop-color:#0a0a0f"/>
      <stop offset="100%" style="stop-color:#050508"/>
    </radialGradient>
    <filter id="glow">
      <feGaussianBlur stdDeviation="4" result="blur"/>
      <feMerge><feMergeNode in="blur"/><feMergeNode in="SourceGraphic"/></feMerge>
    </filter>
  </defs>

  <!-- Background -->
  <rect width="500" height="500" fill="url(#bgGlow)"/>

  <!-- Outer hexagon -->
  <path d="M250 40L430 145V355L250 460L70 355V145L250 40Z"
        stroke="url(#mainGrad)" stroke-width="4" fill="none" filter="url(#glow)"/>

  <!-- Middle hexagon -->
  <path d="M250 80L390 165V335L250 420L110 335V165L250 80Z"
        stroke="url(#mainGrad)" stroke-width="2.5" fill="url(#fillGrad)"/>

  <!-- Inner hexagon -->
  <path d="M250 130L340 185V315L250 370L160 315V185L250 130Z"
        stroke="url(#mainGrad)" stroke-width="2" fill="rgba(0,240,255,0.1)"/>

  <!-- Core circle -->
  <circle cx="250" cy="250" r="55" stroke="url(#mainGrad)" stroke-width="3" fill="none" filter="url(#glow)"/>
  <circle cx="250" cy="250" r="22" fill="url(#mainGrad)"/>

  <!-- Neural lines -->
  <g stroke="url(#mainGrad)" stroke-width="1.5" opacity="0.7">
    <line x1="250" y1="195" x2="250" y2="80"/>
    <line x1="298" y1="222" x2="390" y2="165"/>
    <line x1="298" y1="278" x2="390" y2="335"/>
    <line x1="250" y1="305" x2="250" y2="420"/>
    <line x1="202" y1="278" x2="110" y2="335"/>
    <line x1="202" y1="222" x2="110" y2="165"/>
  </g>

  <!-- Nodes -->
  <g fill="url(#mainGrad)">
    <circle cx="250" cy="80" r="8"/>
    <circle cx="390" cy="165" r="8"/>
    <circle cx="390" cy="335" r="8"/>
    <circle cx="250" cy="420" r="8"/>
    <circle cx="110" cy="335" r="8"/>
    <circle cx="110" cy="165" r="8"/>
  </g>
</svg>
